<mxfile host="www.draw.io" modified="2019-12-17T19:18:26.178Z" agent="Mozilla/5.0 (Windows NT 10.0; Win64; x64; rv:71.0) Gecko/20100101 Firefox/71.0" etag="1m1i4mDj5yEHRMZ5cozL" version="12.4.2" type="github" pages="1">
  <diagram id="Jd7as3e_XMXpgK37TaJj" name="Page-1">
    <mxGraphModel dx="1293" dy="769" grid="1" gridSize="10" guides="1" tooltips="1" connect="1" arrows="1" fold="1" page="1" pageScale="1" pageWidth="850" pageHeight="1100" math="0" shadow="0">
      <root>
        <mxCell id="0"/>
        <mxCell id="1" parent="0"/>
        <mxCell id="dAxwMggLX34IFo7P8Kyk-11" style="edgeStyle=orthogonalEdgeStyle;rounded=0;orthogonalLoop=1;jettySize=auto;html=1;exitX=1;exitY=0.5;exitDx=0;exitDy=0;entryX=0;entryY=0.5;entryDx=0;entryDy=0;" edge="1" parent="1" source="dAxwMggLX34IFo7P8Kyk-1" target="dAxwMggLX34IFo7P8Kyk-4">
          <mxGeometry relative="1" as="geometry"/>
        </mxCell>
        <mxCell id="dAxwMggLX34IFo7P8Kyk-12" style="edgeStyle=orthogonalEdgeStyle;rounded=0;orthogonalLoop=1;jettySize=auto;html=1;exitX=1;exitY=0.5;exitDx=0;exitDy=0;entryX=0;entryY=0.5;entryDx=0;entryDy=0;" edge="1" parent="1" source="dAxwMggLX34IFo7P8Kyk-1" target="dAxwMggLX34IFo7P8Kyk-3">
          <mxGeometry relative="1" as="geometry">
            <Array as="points">
              <mxPoint x="160" y="230"/>
              <mxPoint x="160" y="70"/>
            </Array>
          </mxGeometry>
        </mxCell>
        <mxCell id="dAxwMggLX34IFo7P8Kyk-13" style="edgeStyle=orthogonalEdgeStyle;rounded=0;orthogonalLoop=1;jettySize=auto;html=1;exitX=1;exitY=0.5;exitDx=0;exitDy=0;entryX=0;entryY=0.5;entryDx=0;entryDy=0;" edge="1" parent="1" source="dAxwMggLX34IFo7P8Kyk-1" target="dAxwMggLX34IFo7P8Kyk-2">
          <mxGeometry relative="1" as="geometry">
            <Array as="points">
              <mxPoint x="160" y="230"/>
              <mxPoint x="160" y="150"/>
            </Array>
          </mxGeometry>
        </mxCell>
        <mxCell id="dAxwMggLX34IFo7P8Kyk-14" style="edgeStyle=orthogonalEdgeStyle;rounded=0;orthogonalLoop=1;jettySize=auto;html=1;exitX=1;exitY=0.5;exitDx=0;exitDy=0;entryX=0;entryY=0.5;entryDx=0;entryDy=0;" edge="1" parent="1" source="dAxwMggLX34IFo7P8Kyk-1" target="dAxwMggLX34IFo7P8Kyk-5">
          <mxGeometry relative="1" as="geometry">
            <Array as="points">
              <mxPoint x="160" y="230"/>
              <mxPoint x="160" y="310"/>
            </Array>
          </mxGeometry>
        </mxCell>
        <mxCell id="dAxwMggLX34IFo7P8Kyk-1" value="Request" style="rounded=1;whiteSpace=wrap;html=1;" vertex="1" parent="1">
          <mxGeometry x="30" y="200" width="120" height="60" as="geometry"/>
        </mxCell>
        <mxCell id="dAxwMggLX34IFo7P8Kyk-2" value="Contractor" style="rounded=1;whiteSpace=wrap;html=1;" vertex="1" parent="1">
          <mxGeometry x="180" y="120" width="120" height="60" as="geometry"/>
        </mxCell>
        <mxCell id="dAxwMggLX34IFo7P8Kyk-3" value="Project" style="rounded=1;whiteSpace=wrap;html=1;" vertex="1" parent="1">
          <mxGeometry x="180" y="40" width="120" height="60" as="geometry"/>
        </mxCell>
        <mxCell id="dAxwMggLX34IFo7P8Kyk-4" value="Worker" style="rounded=1;whiteSpace=wrap;html=1;" vertex="1" parent="1">
          <mxGeometry x="180" y="200" width="120" height="60" as="geometry"/>
        </mxCell>
        <mxCell id="dAxwMggLX34IFo7P8Kyk-15" style="edgeStyle=orthogonalEdgeStyle;rounded=0;orthogonalLoop=1;jettySize=auto;html=1;exitX=1;exitY=0.5;exitDx=0;exitDy=0;entryX=0;entryY=0.5;entryDx=0;entryDy=0;" edge="1" parent="1" source="dAxwMggLX34IFo7P8Kyk-5" target="dAxwMggLX34IFo7P8Kyk-7">
          <mxGeometry relative="1" as="geometry"/>
        </mxCell>
        <mxCell id="dAxwMggLX34IFo7P8Kyk-16" style="edgeStyle=orthogonalEdgeStyle;rounded=0;orthogonalLoop=1;jettySize=auto;html=1;exitX=1;exitY=0.5;exitDx=0;exitDy=0;entryX=0;entryY=0.5;entryDx=0;entryDy=0;" edge="1" parent="1" source="dAxwMggLX34IFo7P8Kyk-5" target="dAxwMggLX34IFo7P8Kyk-6">
          <mxGeometry relative="1" as="geometry"/>
        </mxCell>
        <mxCell id="dAxwMggLX34IFo7P8Kyk-5" value="Location" style="rounded=1;whiteSpace=wrap;html=1;" vertex="1" parent="1">
          <mxGeometry x="180" y="280" width="120" height="60" as="geometry"/>
        </mxCell>
        <mxCell id="dAxwMggLX34IFo7P8Kyk-6" value="CP" style="rounded=1;whiteSpace=wrap;html=1;" vertex="1" parent="1">
          <mxGeometry x="330" y="320" width="120" height="60" as="geometry"/>
        </mxCell>
        <mxCell id="dAxwMggLX34IFo7P8Kyk-7" value="MP" style="rounded=1;whiteSpace=wrap;html=1;" vertex="1" parent="1">
          <mxGeometry x="330" y="250" width="120" height="60" as="geometry"/>
        </mxCell>
      </root>
    </mxGraphModel>
  </diagram>
</mxfile>
